<svg width="18" height="18" viewBox="0 0 18 18" fill="none" xmlns="http://www.w3.org/2000/svg">
<path fill-rule="evenodd" clip-rule="evenodd" d="M2.8125 5.56266C2.8125 5.38031 2.88493 5.20543 3.01386 5.0765C3.1428 4.94756 3.31766 4.87512 3.5 4.87512H14.5C14.6823 4.87512 14.8572 4.94756 14.9861 5.0765C15.1151 5.20543 15.1875 5.38031 15.1875 5.56266C15.1875 5.745 15.1151 5.91988 14.9861 6.04881C14.8572 6.17775 14.6823 6.25019 14.5 6.25019H3.5C3.31766 6.25019 3.1428 6.17775 3.01386 6.04881C2.88493 5.91988 2.8125 5.745 2.8125 5.56266ZM4.875 9.00032C4.875 8.81798 4.94743 8.6431 5.07636 8.51416C5.2053 8.38523 5.38016 8.31279 5.5625 8.31279H12.4375C12.6198 8.31279 12.7947 8.38523 12.9236 8.51416C13.0526 8.6431 13.125 8.81798 13.125 9.00032C13.125 9.18267 13.0526 9.35754 12.9236 9.48648C12.7947 9.61542 12.6198 9.68786 12.4375 9.68786H5.5625C5.38016 9.68786 5.2053 9.61542 5.07636 9.48648C4.94743 9.35754 4.875 9.18267 4.875 9.00032ZM6.9375 12.438C6.9375 12.2556 7.00993 12.0808 7.13886 11.9518C7.2678 11.8229 7.44266 11.7505 7.625 11.7505H10.375C10.5573 11.7505 10.7322 11.8229 10.8611 11.9518C10.9901 12.0808 11.0625 12.2556 11.0625 12.438C11.0625 12.6203 10.9901 12.7952 10.8611 12.9241C10.7322 13.0531 10.5573 13.1255 10.375 13.1255H7.625C7.44266 13.1255 7.2678 13.0531 7.13886 12.9241C7.00993 12.7952 6.9375 12.6203 6.9375 12.438Z" fill="white"/>
</svg>
